# xmcd
#
# Track frame offsets:
#	150
#	31332
#	43595
#	56946
#	70541
#	84261
#	106055
#	132795
#	149413
#	176555
#	197914
#	213901
#	242678
#	255501
#	270899
#	310516
#	332977
#
# Disc length: 4742 seconds
#
# Revision: 4
# Processed by: cddbd v1.5.2PL0 Copyright (c) Steve Scherf et al.
# Submitted via: audiograbber 1.83.01
#
DISCID=e7128411
DTITLE=Nina Simone - To Be Free - The Nina SimoneStory [CD 2 1968-1969]
DYEAR=2008
DGENRE=Jazz
TTITLE0=Mississippi Goddam [live]
TTITLE1=In the Morning
TTITLE2=Ain't Got No-I Got Life
TTITLE3=Do What You Gotta Do
TTITLE4=Seems I'm Never Tired Loving You
TTITLE5=Just Like Tom Thumb's Blues
TTITLE6=The Times They Are A-Changin'
TTITLE7=Turn! Turn! Turn! (To Everything There Is a Season)
TTITLE8=The Other Woman [live]
TTITLE9=I Think It's Going to Rain Today [live]
TTITLE10=Save Me [live]
TTITLE11=Revolution [live]
TTITLE12=To Be Young, Gifted and Black
TTITLE13=Black Is the Color of My True Love's Hair [live]
TTITLE14=Westwind [live]
TTITLE15=Who Knows Where the Time Goes [live]
TTITLE16=Suzanne [live]
EXTD=YEAR: 2008
EXTT0=
EXTT1=
EXTT2=
EXTT3=
EXTT4=
EXTT5=
EXTT6=
EXTT7=
EXTT8=
EXTT9=
EXTT10=
EXTT11=
EXTT12=
EXTT13=
EXTT14=
EXTT15=
EXTT16=
PLAYORDER=
